<svg width="115" height="123" viewBox="0 0 115 123" fill="none" xmlns="http://www.w3.org/2000/svg">
<path d="M0 34C0 15.2223 15.2223 0 34 0H81C99.7777 0 115 15.2223 115 34V88.7966C115 107.574 99.7777 122.797 81 122.797H34C15.2223 122.797 0 107.574 0 88.7966V34Z" fill="black"/>
<path d="M77.9545 49.127C77.9239 49.127 77.8966 49.1343 77.8693 49.138C77.4548 43.0065 74.8312 37.2871 70.552 33.1868C66.2729 29.0866 60.673 26.9261 54.934 27.1614C49.195 27.3967 43.7658 30.0094 39.7922 34.448C35.8187 38.8867 33.6114 44.8041 33.6364 50.9516C33.6431 52.8196 33.8559 54.6801 34.2705 56.4946C34.0557 56.4837 33.8545 56.4253 33.6364 56.4253C30.0198 56.4253 26.5513 57.9631 23.994 60.7005C21.4367 63.4379 20 67.1505 20 71.0218C20 75.408 21.8443 79.2943 24.7045 81.9691H88.0898C92.2591 78.6448 95 73.3681 95 67.3726C95 64.9766 94.5591 62.604 93.7025 60.3904C92.8459 58.1767 91.5903 56.1653 90.0075 54.4711C88.4247 52.7768 86.5456 51.4328 84.4776 50.5159C82.4095 49.599 80.193 49.127 77.9545 49.127Z" fill="white"/>
</svg>
