<svg width="115" height="122" viewBox="0 0 115 122" fill="none" xmlns="http://www.w3.org/2000/svg">
<rect width="115" height="122" rx="34" fill="#040404"/>
<path d="M76.7786 47.4856V72.1433C74.9198 71.0701 72.7589 70.6403 70.6309 70.9205C68.503 71.2006 66.5269 72.1751 65.0092 73.6928C63.4916 75.2105 62.5171 77.1866 62.237 79.3145C61.9569 81.4425 62.3867 83.6034 63.4599 85.4622C64.5331 87.3209 66.1896 88.7736 68.1726 89.5949C70.1555 90.4163 72.3541 90.5603 74.4272 90.0048C76.5004 89.4492 78.3324 88.2251 79.6389 86.5223C80.9455 84.8195 81.6536 82.7331 81.6536 80.5868V31.4761C81.6543 30.8503 81.5045 30.2335 81.2167 29.6779C80.9289 29.1222 80.5116 28.6439 80.0001 28.2835C79.4886 27.923 78.8978 27.6909 78.2777 27.6069C77.6576 27.5228 77.0264 27.5891 76.4373 27.8003L45.2373 38.9446C44.481 39.2157 43.8268 39.7139 43.3644 40.371C42.9019 41.028 42.6536 41.8119 42.6536 42.6154V77.0134C40.795 75.9404 38.6343 75.5105 36.5065 75.7905C34.3788 76.0705 32.4028 77.0447 30.8851 78.5621C29.3674 80.0794 28.3927 82.0551 28.1122 84.1828C27.8317 86.3105 28.2611 88.4713 29.3337 90.3302C30.4063 92.189 32.0622 93.642 34.0448 94.4639C36.0273 95.2858 38.2255 95.4306 40.2987 94.8759C42.3719 94.3211 44.2041 93.0979 45.5113 91.3958C46.8185 89.6937 47.5276 87.6079 47.5286 85.4618V57.9327L76.7786 47.4904V47.4856Z" fill="white"/>
</svg>
